<svg width="24" height="24" viewBox="0 0 24 24" fill="none" xmlns="http://www.w3.org/2000/svg">
<path d="M7.20744 0.959999C6.80995 0.959999 6.48744 1.28251 6.48744 1.68V4.44744C5.65212 4.74744 5.04744 5.54805 5.04744 6.47995C5.04744 7.66401 6.02337 8.63995 7.20744 8.63995C8.3915 8.63995 9.36744 7.66401 9.36744 6.47995C9.36744 5.54901 8.76088 4.74744 7.92744 4.44744V1.68C7.92744 1.28251 7.60492 0.959999 7.20744 0.959999V0.959999ZM16.8074 0.959999C16.4099 0.959999 16.0874 1.28251 16.0874 1.68V4.44744C15.2521 4.74744 14.6474 5.54805 14.6474 6.47995C14.6474 7.66401 15.6234 8.63995 16.8074 8.63995C17.9915 8.63995 18.9674 7.66401 18.9674 6.47995C18.9674 5.54901 18.3609 4.74744 17.5274 4.44744V1.68C17.5274 1.28251 17.2049 0.959999 16.8074 0.959999V0.959999ZM3.84744 2.4C2.39337 2.4 1.2 3.59345 1.2 5.04744V20.3926C1.2 21.8466 2.39344 23.04 3.84744 23.04H20.1526C21.6066 23.04 22.8 21.8466 22.8 20.3926V5.04744C22.8 3.59338 21.6065 2.4 20.1526 2.4H18.72C18.3394 2.39437 17.985 2.73938 17.985 3.12C17.985 3.50062 18.3394 3.84562 18.72 3.84H20.1526C20.8322 3.84 21.36 4.36781 21.36 5.04749V9.12005H2.64004V5.04749C2.64004 4.36781 3.16785 3.84 3.84753 3.84H5.28004C5.66066 3.84562 6.00753 3.50062 6.00753 3.12C6.00753 2.73938 5.66066 2.39438 5.28004 2.4H3.84744ZM9.12 2.4C8.72251 2.4 8.4 2.72251 8.4 3.12C8.4 3.51749 8.72251 3.84 9.12 3.84H14.88C15.2775 3.84 15.6 3.51749 15.6 3.12C15.6 2.72251 15.2775 2.4 14.88 2.4H9.12ZM7.20748 5.76C7.61342 5.76 7.92748 6.07406 7.92748 6.48C7.92748 6.88593 7.61342 7.2 7.20748 7.2C6.80155 7.2 6.48748 6.88593 6.48748 6.48C6.48748 6.07406 6.80155 5.76 7.20748 5.76ZM16.8075 5.76C17.2134 5.76 17.5275 6.07406 17.5275 6.48C17.5275 6.88593 17.2134 7.2 16.8075 7.2C16.4015 7.2 16.0875 6.88593 16.0875 6.48C16.0875 6.07406 16.4015 5.76 16.8075 5.76ZM2.64004 10.56H21.36V20.3926C21.36 21.0722 20.8322 21.6 20.1526 21.6H3.84744C3.16776 21.6 2.63995 21.0722 2.63995 20.3926L2.64004 10.56Z" fill="black"/>
</svg>
