<svg width="24" height="24" viewBox="0 0 24 24" fill="none" xmlns="http://www.w3.org/2000/svg">
<path fill-rule="evenodd" clip-rule="evenodd" d="M6.35023 7.54101C6.46847 7.47996 6.61299 7.54642 6.64314 7.67626L6.90591 8.80616L8.11696 9.45767C8.17415 9.48859 8.21279 9.54423 8.22284 9.6076L8.43769 11.066L9.17807 11.5305L10.2608 11.0157L11.1883 10.256L10.9634 7.38109C10.9587 7.32699 10.9765 7.27367 11.0113 7.2327L11.3366 6.85323C11.3521 6.83545 11.3707 6.82 11.3907 6.80841L12.101 6.40497L13.377 6.00927C13.3963 6.00309 13.4164 6 13.4372 6H13.7433C13.7812 6 13.8183 6.01082 13.8507 6.03091L15.7295 7.19173C15.7666 7.21492 15.7952 7.24892 15.8114 7.28911L16.245 8.37188L17.1639 8.71426L17.6608 8.36494C17.7018 8.33557 17.752 8.3232 17.8015 8.32861L19.613 8.53806C19.7158 8.54965 19.7939 8.63698 19.7939 8.74053V9.23824L20.702 9.75451C20.7862 9.80165 20.8249 9.90135 20.7963 9.99331L20.1726 11.9509H20.6015C20.6803 11.9509 20.7514 11.9965 20.7855 12.0669L21.5622 13.6852C21.5753 13.713 21.5823 13.7432 21.5823 13.7741V15.3205C21.5823 15.3878 21.5483 15.4512 21.4926 15.489L20.457 16.1877L20.0907 17.5185C20.059 17.6329 19.9384 17.6963 19.8264 17.6569L18.6578 17.2488L17.9174 17.9444C17.8796 17.9799 17.8301 18 17.7783 18H17.1933C17.167 18 17.1415 17.9946 17.1183 17.9853L16.2805 17.6545C16.2388 17.6375 16.2033 17.6074 16.1801 17.5687L15.9281 17.1437L14.5896 15.8716L13.0833 15.5192C13.0214 15.5045 12.9697 15.462 12.9442 15.404L12.5616 14.5531L11.8444 15.2178C11.8065 15.2525 11.7571 15.2719 11.7053 15.2719H10.9247C10.9038 15.2719 10.8838 15.2688 10.8637 15.2626L9.15025 14.7262L7.63006 14.9774C7.60455 14.982 7.57751 14.9813 7.552 14.9751L6.3966 14.7146L5.19714 14.424L3.94282 14.9473L2.98217 15.9952C2.95898 16.0207 2.92961 16.0401 2.89638 16.0509L2.29124 16.2541C2.16063 16.2982 2.02537 16.2024 2.02228 16.0648C1.99987 14.9264 1.99369 14.3174 2.00683 14.1906C2.01842 14.0662 2.14517 13.3892 2.39247 12.1164C2.39866 12.0855 2.4118 12.0569 2.43034 12.0321L3.12282 11.1202V10.1557C3.12282 10.1232 3.13054 10.0907 3.14523 10.0621L3.98686 8.43762C4.02164 8.37039 4.09197 8.32788 4.1677 8.32788H4.83699L6.35023 7.54101ZM7.64165 14.5769L7.60301 14.5684L7.56359 14.5754L7.64165 14.5769ZM4.98078 8.71248C4.95218 8.72716 4.91972 8.73489 4.88726 8.73489H4.29217L3.53091 10.2048V11.1887C3.53091 11.2335 3.51622 11.2768 3.48917 11.3123L2.78434 12.2405C2.54862 13.4508 2.42265 14.1278 2.4126 14.2299C2.40332 14.3226 2.40719 14.8505 2.42496 15.7787L2.71711 15.6805L3.67234 14.6387C3.69244 14.6163 3.7164 14.5993 3.74422 14.5877L5.10211 14.022C5.1423 14.005 5.18635 14.0019 5.22886 14.012L6.48938 14.3172L7.60305 14.5684L9.13098 14.3157C9.16266 14.3103 9.19512 14.3126 9.22526 14.3219L10.9557 14.8636H11.6257L12.4929 14.0607C12.5956 13.9656 12.7603 13.9996 12.8174 14.1264L13.275 15.1442L14.7364 15.4866C14.772 15.4951 14.8044 15.5121 14.8307 15.5376L16.2303 16.8669C16.2435 16.88 16.2551 16.8947 16.2651 16.9109L16.4954 17.3005L17.232 17.5918H17.6972L18.4685 16.8661C18.5242 16.8143 18.6038 16.7973 18.6756 16.8228L19.7553 17.2L20.0838 16.0067C20.0969 15.9596 20.1263 15.9186 20.1665 15.8916L21.1743 15.2115V13.8203L20.4733 12.3589H19.8944C19.7561 12.3589 19.6579 12.2244 19.6997 12.093L20.3574 10.0273L19.4887 9.5342C19.4253 9.49787 19.3859 9.43063 19.3859 9.35721V8.9221L17.8317 8.7428L17.31 9.10914C17.2552 9.14778 17.1848 9.15706 17.1215 9.13387L16.0186 8.72272C15.9645 8.70263 15.9212 8.66089 15.9004 8.60757L15.4575 7.50318L13.6854 6.40804H13.4674L12.2834 6.7705L11.6234 7.14533L11.3761 7.43359L11.6033 10.3303C11.6087 10.3968 11.5809 10.4617 11.5291 10.5042L10.5005 11.3466C10.4873 11.3574 10.4734 11.3659 10.4587 11.3729L9.25231 11.9471C9.18893 11.9765 9.11551 11.9726 9.056 11.9355L8.14172 11.362C8.09071 11.3304 8.05671 11.2778 8.04821 11.2191L7.83413 9.76844L6.63159 9.12234C6.57981 9.09452 6.54271 9.04583 6.52957 8.98864L6.30545 8.0249L4.98078 8.71248Z" fill="black" stroke="black" stroke-width="0.5"/>
</svg>
