<svg width="24" height="24" viewBox="0 0 24 24" fill="none" xmlns="http://www.w3.org/2000/svg">
<path d="M22.2749 8.53128C22.1305 8.56878 21.9767 8.54628 21.8483 8.47034C21.7199 8.3944 21.6271 8.27066 21.5905 8.12628L21.2286 6.71253L19.364 9.92062H19.363C20.5677 10.8009 21.3824 12.1144 21.6355 13.5845C21.8887 15.0545 21.5605 16.5648 20.7196 17.7977C19.8796 19.0295 18.5933 19.8864 17.1328 20.1873C15.6722 20.4883 14.1515 20.2098 12.8925 19.4101C11.6334 18.6105 10.7353 17.3523 10.3866 15.903C10.0379 14.4527 10.2666 12.9237 11.0251 11.6392V11.6364C11.7695 10.3764 11.8726 8.83797 11.3026 7.48893C10.7335 6.1408 9.55884 5.14238 8.13578 4.79637C6.71359 4.45137 5.21162 4.80012 4.0877 5.73763C2.96378 6.67513 2.34957 8.08982 2.43302 9.55051C2.51646 11.0121 3.28802 12.347 4.51147 13.1505C5.73492 13.953 7.26667 14.1293 8.64115 13.624C8.93177 13.5208 9.25147 13.6708 9.3574 13.9605C9.46334 14.2493 9.31709 14.5708 9.02834 14.6796C8.57085 14.8474 8.0946 14.9561 7.60896 15.004V17.1714H9.17645C9.48677 17.1714 9.73896 17.4227 9.73896 17.734C9.73896 18.0443 9.48677 18.2965 9.17645 18.2965H7.6127V19.9015C7.6127 20.2118 7.36051 20.464 7.05019 20.464C6.73987 20.464 6.48768 20.2118 6.48768 19.9015V18.2965H4.92019C4.60987 18.2965 4.35768 18.0443 4.35768 17.734C4.35768 17.4227 4.60987 17.1714 4.92019 17.1714H6.48768V15.004C4.82736 14.8399 3.31992 13.9614 2.358 12.5984C1.39519 11.2353 1.07361 9.52067 1.47674 7.90067C1.87893 6.28161 2.96549 4.91747 4.45418 4.16291C5.94199 3.40823 7.68482 3.33791 9.2297 3.96979C10.7738 4.6026 11.9662 5.87572 12.4978 7.45723C13.0293 9.03878 12.8465 10.774 11.9972 12.2104C11.2565 13.4639 11.1497 14.993 11.7094 16.3372C12.269 17.6816 13.4297 18.6828 14.8406 19.0411C16.2516 19.3983 17.7497 19.0701 18.8813 18.1542C20.0138 17.2392 20.6475 15.8433 20.5931 14.3884C20.5388 12.9334 19.8019 11.59 18.6047 10.7612C17.4075 9.93249 15.8905 9.71685 14.5098 10.179C14.2145 10.2775 13.8958 10.1181 13.7973 9.82373C13.6989 9.52934 13.8582 9.2106 14.1526 9.11121C15.5458 8.64621 17.0645 8.73247 18.3968 9.35308L20.2718 6.12436L18.8309 6.49468C18.7849 6.50687 18.738 6.5125 18.6902 6.5125C18.4071 6.5125 18.168 6.30156 18.1324 6.0203C18.0977 5.73905 18.2768 5.47562 18.5515 5.4053L21.2889 4.70218H21.2927C21.3011 4.7003 21.3095 4.7003 21.3189 4.69843L21.318 4.69749C21.3452 4.69186 21.3724 4.68718 21.3995 4.6853H21.4042C21.4183 4.6853 21.4324 4.6853 21.4464 4.68718C21.468 4.68718 21.4886 4.68811 21.5102 4.69093C21.527 4.69374 21.5439 4.69749 21.5608 4.70218C21.5795 4.70593 21.5983 4.71061 21.6161 4.71624C21.6377 4.72468 21.6574 4.73311 21.677 4.74436C21.6892 4.74999 21.7024 4.75374 21.7145 4.76124H21.7174C21.7492 4.77905 21.7792 4.80155 21.8064 4.82593C21.8158 4.83343 21.8224 4.84374 21.8308 4.85218C21.8486 4.86905 21.8655 4.8878 21.8814 4.90655C21.8908 4.91874 21.8964 4.93187 21.9049 4.94405C21.9189 4.96562 21.9311 4.98811 21.9424 5.01155C21.9555 5.04061 21.9667 5.07155 21.9752 5.10249V5.1053L22.6802 7.84754C22.7177 7.99192 22.6952 8.14474 22.6192 8.27316C22.5433 8.40158 22.4195 8.49441 22.2752 8.5319L22.2749 8.53128Z" fill="black"/>
</svg>
