<svg width="259" height="80" viewBox="0 0 259 80" fill="none" xmlns="http://www.w3.org/2000/svg">
<path d="M97.7773 50V30.0938H104.75C107.165 30.0938 108.997 30.5586 110.246 31.4883C111.495 32.4089 112.119 33.7624 112.119 35.5488C112.119 36.5241 111.868 37.3854 111.367 38.1328C110.866 38.8711 110.169 39.4134 109.275 39.7598C110.296 40.015 111.098 40.5299 111.682 41.3047C112.274 42.0794 112.57 43.0273 112.57 44.1484C112.57 46.0625 111.96 47.5117 110.738 48.4961C109.517 49.4805 107.776 49.9818 105.516 50H97.7773ZM101.879 41.332V46.7051H105.393C106.359 46.7051 107.111 46.4772 107.648 46.0215C108.195 45.5566 108.469 44.9186 108.469 44.1074C108.469 42.2845 107.525 41.3594 105.639 41.332H101.879ZM101.879 38.4336H104.914C106.983 38.3971 108.018 37.5723 108.018 35.959C108.018 35.0566 107.753 34.4095 107.225 34.0176C106.705 33.6165 105.88 33.416 104.75 33.416H101.879V38.4336ZM123.973 50C123.79 49.6445 123.658 49.2025 123.576 48.6738C122.619 49.7402 121.375 50.2734 119.844 50.2734C118.395 50.2734 117.191 49.8542 116.234 49.0156C115.286 48.1771 114.812 47.1198 114.812 45.8438C114.812 44.276 115.391 43.0729 116.549 42.2344C117.715 41.3958 119.397 40.972 121.594 40.9629H123.412V40.1152C123.412 39.4316 123.234 38.8848 122.879 38.4746C122.533 38.0645 121.981 37.8594 121.225 37.8594C120.559 37.8594 120.035 38.0189 119.652 38.3379C119.279 38.6569 119.092 39.0944 119.092 39.6504H115.141C115.141 38.7936 115.405 38.0007 115.934 37.2715C116.462 36.5423 117.21 35.9727 118.176 35.5625C119.142 35.1432 120.227 34.9336 121.43 34.9336C123.253 34.9336 124.697 35.3939 125.764 36.3145C126.839 37.2259 127.377 38.5111 127.377 40.1699V46.582C127.386 47.9857 127.582 49.0475 127.965 49.7676V50H123.973ZM120.705 47.252C121.288 47.252 121.826 47.1243 122.318 46.8691C122.811 46.6048 123.175 46.2539 123.412 45.8164V43.2734H121.936C119.958 43.2734 118.905 43.957 118.777 45.3242L118.764 45.5566C118.764 46.0488 118.937 46.4544 119.283 46.7734C119.63 47.0924 120.104 47.252 120.705 47.252ZM134.582 50H130.617V29H134.582V50ZM145.861 45.9121C145.861 45.429 145.62 45.0508 145.137 44.7773C144.663 44.4948 143.897 44.2441 142.84 44.0254C139.322 43.2871 137.562 41.7923 137.562 39.541C137.562 38.2285 138.105 37.1348 139.189 36.2598C140.283 35.3757 141.71 34.9336 143.469 34.9336C145.346 34.9336 146.846 35.3757 147.967 36.2598C149.097 37.1439 149.662 38.2923 149.662 39.7051H145.711C145.711 39.14 145.529 38.6751 145.164 38.3105C144.799 37.9368 144.23 37.75 143.455 37.75C142.79 37.75 142.275 37.9004 141.91 38.2012C141.546 38.502 141.363 38.8848 141.363 39.3496C141.363 39.7871 141.568 40.1426 141.979 40.416C142.398 40.6803 143.1 40.9128 144.084 41.1133C145.068 41.3047 145.898 41.5234 146.572 41.7695C148.66 42.5352 149.703 43.8613 149.703 45.748C149.703 47.097 149.124 48.1908 147.967 49.0293C146.809 49.8587 145.314 50.2734 143.482 50.2734C142.243 50.2734 141.14 50.0547 140.174 49.6172C139.217 49.1706 138.465 48.5645 137.918 47.7988C137.371 47.0241 137.098 46.1901 137.098 45.2969H140.844C140.88 45.9987 141.14 46.5365 141.623 46.9102C142.106 47.2839 142.753 47.4707 143.564 47.4707C144.321 47.4707 144.891 47.3294 145.273 47.0469C145.665 46.7552 145.861 46.377 145.861 45.9121ZM151.645 42.4668C151.645 40.9993 151.927 39.6914 152.492 38.543C153.057 37.3945 153.868 36.5059 154.926 35.877C155.992 35.248 157.227 34.9336 158.631 34.9336C160.627 34.9336 162.254 35.5443 163.512 36.7656C164.779 37.987 165.485 39.6458 165.631 41.7422L165.658 42.7539C165.658 45.0234 165.025 46.8464 163.758 48.2227C162.491 49.5898 160.791 50.2734 158.658 50.2734C156.525 50.2734 154.821 49.5898 153.545 48.2227C152.278 46.8555 151.645 44.9961 151.645 42.6445V42.4668ZM155.596 42.7539C155.596 44.1576 155.86 45.2331 156.389 45.9805C156.917 46.7188 157.674 47.0879 158.658 47.0879C159.615 47.0879 160.363 46.7233 160.9 45.9941C161.438 45.2559 161.707 44.0801 161.707 42.4668C161.707 41.0905 161.438 40.0241 160.9 39.2676C160.363 38.5111 159.606 38.1328 158.631 38.1328C157.665 38.1328 156.917 38.5111 156.389 39.2676C155.86 40.015 155.596 41.1771 155.596 42.7539ZM172.822 31.5703V35.207H175.352V38.1055H172.822V45.4883C172.822 46.0352 172.927 46.4271 173.137 46.6641C173.346 46.901 173.747 47.0195 174.34 47.0195C174.777 47.0195 175.165 46.9876 175.502 46.9238V49.918C174.727 50.1549 173.93 50.2734 173.109 50.2734C170.339 50.2734 168.926 48.8743 168.871 46.0762V38.1055H166.711V35.207H168.871V31.5703H172.822ZM186.125 50C185.943 49.6445 185.811 49.2025 185.729 48.6738C184.771 49.7402 183.527 50.2734 181.996 50.2734C180.547 50.2734 179.344 49.8542 178.387 49.0156C177.439 48.1771 176.965 47.1198 176.965 45.8438C176.965 44.276 177.544 43.0729 178.701 42.2344C179.868 41.3958 181.549 40.972 183.746 40.9629H185.564V40.1152C185.564 39.4316 185.387 38.8848 185.031 38.4746C184.685 38.0645 184.133 37.8594 183.377 37.8594C182.712 37.8594 182.188 38.0189 181.805 38.3379C181.431 38.6569 181.244 39.0944 181.244 39.6504H177.293C177.293 38.7936 177.557 38.0007 178.086 37.2715C178.615 36.5423 179.362 35.9727 180.328 35.5625C181.294 35.1432 182.379 34.9336 183.582 34.9336C185.405 34.9336 186.85 35.3939 187.916 36.3145C188.992 37.2259 189.529 38.5111 189.529 40.1699V46.582C189.538 47.9857 189.734 49.0475 190.117 49.7676V50H186.125ZM182.857 47.252C183.441 47.252 183.979 47.1243 184.471 46.8691C184.963 46.6048 185.327 46.2539 185.564 45.8164V43.2734H184.088C182.11 43.2734 181.057 43.957 180.93 45.3242L180.916 45.5566C180.916 46.0488 181.089 46.4544 181.436 46.7734C181.782 47.0924 182.256 47.252 182.857 47.252ZM188.312 32.418H178.879V30.1348H188.312V32.418ZM196.748 35.207V50.8066C196.748 52.4382 196.315 53.7051 195.449 54.6074C194.583 55.5189 193.335 55.9746 191.703 55.9746C191.02 55.9746 190.368 55.8971 189.748 55.7422V52.6113C190.222 52.6934 190.637 52.7344 190.992 52.7344C192.186 52.7344 192.783 52.1009 192.783 50.834V35.207H196.748ZM192.469 31.3789C192.469 30.7865 192.665 30.2988 193.057 29.916C193.458 29.5332 194 29.3418 194.684 29.3418C195.367 29.3418 195.905 29.5332 196.297 29.916C196.698 30.2988 196.898 30.7865 196.898 31.3789C196.898 31.9805 196.693 32.4727 196.283 32.8555C195.882 33.2383 195.349 33.4297 194.684 33.4297C194.018 33.4297 193.48 33.2383 193.07 32.8555C192.669 32.4727 192.469 31.9805 192.469 31.3789ZM207.85 45.9121C207.85 45.429 207.608 45.0508 207.125 44.7773C206.651 44.4948 205.885 44.2441 204.828 44.0254C201.31 43.2871 199.551 41.7923 199.551 39.541C199.551 38.2285 200.093 37.1348 201.178 36.2598C202.271 35.3757 203.698 34.9336 205.457 34.9336C207.335 34.9336 208.834 35.3757 209.955 36.2598C211.085 37.1439 211.65 38.2923 211.65 39.7051H207.699C207.699 39.14 207.517 38.6751 207.152 38.3105C206.788 37.9368 206.218 37.75 205.443 37.75C204.778 37.75 204.263 37.9004 203.898 38.2012C203.534 38.502 203.352 38.8848 203.352 39.3496C203.352 39.7871 203.557 40.1426 203.967 40.416C204.386 40.6803 205.088 40.9128 206.072 41.1133C207.057 41.3047 207.886 41.5234 208.561 41.7695C210.648 42.5352 211.691 43.8613 211.691 45.748C211.691 47.097 211.113 48.1908 209.955 49.0293C208.798 49.8587 207.303 50.2734 205.471 50.2734C204.231 50.2734 203.128 50.0547 202.162 49.6172C201.205 49.1706 200.453 48.5645 199.906 47.7988C199.359 47.0241 199.086 46.1901 199.086 45.2969H202.832C202.868 45.9987 203.128 46.5365 203.611 46.9102C204.094 47.2839 204.742 47.4707 205.553 47.4707C206.309 47.4707 206.879 47.3294 207.262 47.0469C207.654 46.7552 207.85 46.377 207.85 45.9121ZM214.453 48.0586C214.453 47.4297 214.663 46.9193 215.082 46.5273C215.51 46.1354 216.044 45.9395 216.682 45.9395C217.329 45.9395 217.862 46.1354 218.281 46.5273C218.71 46.9193 218.924 47.4297 218.924 48.0586C218.924 48.6784 218.714 49.1842 218.295 49.5762C217.876 49.959 217.338 50.1504 216.682 50.1504C216.035 50.1504 215.501 49.959 215.082 49.5762C214.663 49.1842 214.453 48.6784 214.453 48.0586ZM226.566 50H222.602V29H226.566V50ZM235.371 45.1738L238.119 35.207H242.248L237.258 50H233.484L228.494 35.207H232.623L235.371 45.1738Z" fill="black"/>
<path d="M30.5312 19.528C30.303 19.6405 30.1062 19.7842 29.9374 19.9811C28.0374 22.3624 27.0468 25.7624 26.3093 29.3339C25.628 32.737 25.2593 36.3057 24.8624 39.3683L12.3344 55.0715C11.8531 55.6965 11.9375 56.7153 12.5313 57.2528L25.2313 68.8216L11.9937 68.7653V71.9684L59.9841 71.9966V68.8215H37.6185L55.5905 48.3279C56.128 47.7342 56.0717 46.7404 55.5061 46.1748L50.6874 41.353C51.5655 40.5874 52.3874 39.7936 53.0967 38.9999C55.1936 36.5905 56.4998 33.728 56.7249 29.9279L67.1561 24.9091C67.6655 24.6248 68.0061 24.0591 68.0061 23.4623V9.77186C67.978 8.98123 67.2967 8.27186 66.531 8.21562C52.7838 6.60002 40.7934 14.5656 30.531 19.5284L30.5312 19.528ZM35.3499 31.3776L40.9905 36.9901C39.403 38.8057 37.7874 40.5057 36.6249 42.0369C35.0937 43.9369 34.3562 46.5432 35.6625 48.4432C38.4687 50.7681 41.8718 49.1244 44.2809 46.8838C45.6121 45.6932 47.0871 44.5025 48.3058 43.4807L52.1902 47.3651L33.3686 68.8243H29.9655L15.7623 55.8651C22.3123 47.6747 28.8591 39.5683 35.3495 31.3747L35.3499 31.3776Z" fill="#2f9cf1"/>
</svg>
